<svg width="512" height="512" viewBox="0 0 512 512" fill="none" xmlns="http://www.w3.org/2000/svg">
<path d="M430.11 347.9C423.51 341.8 413.81 340.3 405.51 338.9C394.01 337 389.61 334.9 382.91 328.9C368.61 316.2 368.61 297.8 382.91 285.1L413.21 258.2C459.61 217.2 459.61 150 413.21 109C379.01 78.9 333.11 64 285.41 64C229.71 64 171.51 84.3 126.61 124.1C43.1101 197.9 43.1101 318.8 126.61 392.6C168.11 429.3 224.11 447.6 279.51 448H281.21C336.61 448 391.21 430.1 430.01 395.6C444.41 382.9 442 359 430.11 347.9Z" fill="#443F30" stroke="#FFD66C" stroke-width="32" stroke-miterlimit="10"/>
<path d="M175.5 208C175.5 225.397 161.397 239.5 144 239.5C126.603 239.5 112.5 225.397 112.5 208C112.5 190.603 126.603 176.5 144 176.5C161.397 176.5 175.5 190.603 175.5 208Z" fill="#443F30" stroke="#FFD66C" stroke-width="7"/>
<path d="M183.5 311C183.5 328.397 169.397 342.5 152 342.5C134.603 342.5 120.5 328.397 120.5 311C120.5 293.603 134.603 279.5 152 279.5C169.397 279.5 183.5 293.603 183.5 311Z" fill="#443F30" stroke="#FFD66C" stroke-width="7"/>
<path d="M255.5 144C255.5 161.397 241.397 175.5 224 175.5C206.603 175.5 192.5 161.397 192.5 144C192.5 126.603 206.603 112.5 224 112.5C241.397 112.5 255.5 126.603 255.5 144Z" fill="#443F30" stroke="#FFD66C" stroke-width="7"/>
<path d="M303.5 367C303.5 393.234 282.234 414.5 256 414.5C229.766 414.5 208.5 393.234 208.5 367C208.5 340.766 229.766 319.5 256 319.5C282.234 319.5 303.5 340.766 303.5 367Z" fill="#443F30" stroke="#FFD66C" stroke-width="7"/>
<path d="M359.5 144C359.5 161.397 345.397 175.5 328 175.5C310.603 175.5 296.5 161.397 296.5 144C296.5 126.603 310.603 112.5 328 112.5C345.397 112.5 359.5 126.603 359.5 144Z" fill="#443F30" stroke="#FFD66C" stroke-width="7"/>
</svg>
