<svg width="24" height="24" viewBox="0 0 24 24" fill="none" xmlns="http://www.w3.org/2000/svg">
<g clip-path="url(#clip0_44_123)">
<mask id="mask0_44_123" style="mask-type:luminance" maskUnits="userSpaceOnUse" x="0" y="0" width="24" height="24">
<path d="M0 0H24V24H0V0Z" fill="white"/>
</mask>
<g mask="url(#mask0_44_123)">
<path d="M2.91258 3.86963H21.0865C21.3402 3.86963 21.5835 3.9704 21.7629 4.14979C21.9422 4.32917 22.043 4.57246 22.043 4.82615V15.3479H1.95605V4.82615C1.95605 4.57246 2.05683 4.32917 2.23621 4.14979C2.4156 3.9704 2.65889 3.86963 2.91258 3.86963Z" fill="white"/>
<path d="M14.3908 3.86963H21.0865C21.3402 3.86963 21.5835 3.9704 21.7629 4.14979C21.9422 4.32917 22.043 4.57246 22.043 4.82615V15.3479H1.95605V4.82615C1.95605 4.57246 2.05683 4.32917 2.23621 4.14979C2.4156 3.9704 2.65889 3.86963 2.91258 3.86963H9.60823" stroke="#191919" stroke-linecap="round" stroke-linejoin="round"/>
<path d="M14.3915 3.86962C14.3915 4.1233 14.2907 4.3666 14.1113 4.54598C13.932 4.72536 13.6887 4.82614 13.435 4.82614H10.5654C10.3117 4.82614 10.0684 4.72536 9.88905 4.54598C9.70966 4.3666 9.60889 4.1233 9.60889 3.86962C9.60889 3.61593 9.70966 3.37264 9.88905 3.19325C10.0684 3.01387 10.3117 2.91309 10.5654 2.91309H13.435C13.6887 2.91309 13.932 3.01387 14.1113 3.19325C14.2907 3.37264 14.3915 3.61593 14.3915 3.86962Z" fill="#FFBC44"/>
<path d="M22.0435 15.3477H1.95652C1.70284 15.3477 1.45954 15.4484 1.28016 15.6278C1.10078 15.8072 1 16.0505 1 16.3042C1 16.5579 1.10078 16.8012 1.28016 16.9806C1.45954 17.1599 1.70284 17.2607 1.95652 17.2607H22.0435C22.2972 17.2607 22.5405 17.1599 22.7198 16.9806C22.8992 16.8012 23 16.5579 23 16.3042C23 16.0505 22.8992 15.8072 22.7198 15.6278C22.5405 15.4484 22.2972 15.3477 22.0435 15.3477Z" fill="#FFBC44"/>
<path d="M11.9995 17.2607V22.9998" stroke="#191919" stroke-linecap="round" stroke-linejoin="round"/>
<path d="M4.34717 22.9998L7.21673 17.2607" stroke="#191919" stroke-linecap="round" stroke-linejoin="round"/>
<path d="M19.6523 22.9998L16.7827 17.2607" stroke="#191919" stroke-linecap="round" stroke-linejoin="round"/>
<path d="M11.9995 1V2.91304" stroke="#191919" stroke-linecap="round" stroke-linejoin="round"/>
<path d="M14.3915 3.86962C14.3915 4.1233 14.2907 4.3666 14.1113 4.54598C13.932 4.72536 13.6887 4.82614 13.435 4.82614H10.5654C10.3117 4.82614 10.0684 4.72536 9.88905 4.54598C9.70966 4.3666 9.60889 4.1233 9.60889 3.86962C9.60889 3.61593 9.70966 3.37264 9.88905 3.19325C10.0684 3.01387 10.3117 2.91309 10.5654 2.91309H13.435C13.6887 2.91309 13.932 3.01387 14.1113 3.19325C14.2907 3.37264 14.3915 3.61593 14.3915 3.86962Z" stroke="#191919" stroke-linecap="round" stroke-linejoin="round"/>
<path d="M22.0435 15.3477H1.95652C1.70284 15.3477 1.45954 15.4484 1.28016 15.6278C1.10078 15.8072 1 16.0505 1 16.3042C1 16.5579 1.10078 16.8012 1.28016 16.9806C1.45954 17.1599 1.70284 17.2607 1.95652 17.2607H22.0435C22.2972 17.2607 22.5405 17.1599 22.7198 16.9806C22.8992 16.8012 23 16.5579 23 16.3042C23 16.0505 22.8992 15.8072 22.7198 15.6278C22.5405 15.4484 22.2972 15.3477 22.0435 15.3477Z" stroke="#191919" stroke-linecap="round" stroke-linejoin="round"/>
</g>
</g>
<defs>
<clipPath id="clip0_44_123">
<rect width="24" height="24" fill="white"/>
</clipPath>
</defs>
</svg>
